<svg width="112" height="28" viewBox="0 0 112 28" fill="none" xmlns="http://www.w3.org/2000/svg">
<g clip-path="url(#clip0)">
<path d="M36.1228 27.7831H33.4964V15.3932H38.2887C40.721 15.3932 42.0951 16.9386 42.0951 19.3328C42.0951 21.0724 41.2957 22.4388 39.9102 22.8309L42.3425 27.7792H39.4306L37.3523 23.1811H36.1228V27.7831ZM37.6454 21.1256C38.8863 21.1256 39.3126 20.6841 39.3126 19.6031V19.0702C39.3126 17.9892 38.8863 17.5476 37.6454 17.5476H36.1228V21.1333L37.6454 21.1256Z" fill="#1C509D"/>
<path d="M43.3245 23.2381C43.3245 20.2387 45.0298 18.4116 47.778 18.4116C50.5262 18.4116 52.2011 20.2044 52.2011 23.063V23.8434H45.9319V24.0032C45.9319 25.1756 46.6932 25.975 48.0978 25.975C48.5612 25.9827 49.0203 25.8838 49.4394 25.6858C49.8585 25.4877 50.2265 25.196 50.5148 24.833L51.9346 26.3784C51.2228 27.2501 49.9819 27.9924 48.0102 27.9924C44.9384 27.9924 43.3245 26.1653 43.3245 23.2343V23.2381ZM45.9319 22.2256V22.3665H49.6279V22.2256C49.6279 21.0342 48.9352 20.2882 47.7971 20.2882C46.6589 20.2882 45.9319 21.0495 45.9319 22.2256Z" fill="#1C509D"/>
<path d="M53.2478 26.2756L54.7209 24.9091C55.0845 25.313 55.5314 25.6332 56.0309 25.8475C56.5304 26.0617 57.0705 26.1649 57.6137 26.15C58.6453 26.15 59.2848 25.8302 59.2848 25.1755C59.2848 24.6578 58.8584 24.5018 58.1428 24.3952L56.6698 24.163C55.0368 23.9156 53.7388 23.2228 53.7388 21.4985C53.7388 19.5953 55.2842 18.4268 57.9259 18.4268C59.7187 18.4268 60.971 18.9406 61.7323 19.8275L60.4191 21.3196C60.0849 20.9727 59.6813 20.7002 59.2346 20.5198C58.788 20.3394 58.3083 20.2553 57.8269 20.2729C56.8334 20.2729 56.3043 20.5926 56.3043 21.194C56.3043 21.7269 56.7307 21.8868 57.4463 21.9934L58.9041 22.2256C60.5523 22.473 61.8503 23.1657 61.8503 24.89C61.8503 26.7932 60.3049 27.9961 57.5909 27.9961C55.5659 27.9961 53.9862 27.3414 53.2402 26.2756" fill="#1C509D"/>
<path d="M63.2054 23.2381C63.2054 20.2387 64.9107 18.4116 67.6627 18.4116C70.4148 18.4116 72.082 20.2044 72.082 23.063V23.8434H65.8166V24.0032C65.8166 25.1756 66.5779 25.975 67.9825 25.975C68.4454 25.9827 68.9039 25.8837 69.3224 25.6857C69.7409 25.4877 70.1082 25.1959 70.3958 24.833L71.8155 26.3784C71.1076 27.2501 69.8629 27.9924 67.8949 27.9924C64.8232 27.9924 63.2054 26.1653 63.2054 23.2343V23.2381ZM65.8166 22.2256V22.3665H69.5089V22.2256C69.5089 21.0342 68.8161 20.2882 67.6818 20.2882C66.5475 20.2882 65.8166 21.0495 65.8166 22.2256Z" fill="#1C509D"/>
<path d="M80.9052 27.783C79.8241 27.783 79.1123 27.2006 79.002 26.169H78.9144C78.5947 27.3566 77.5289 27.9961 76.1281 27.9961C74.3505 27.9961 73.1782 26.9836 73.1782 25.2631C73.1782 23.3599 74.617 22.4388 77.2967 22.4388H78.7926V21.9782C78.7926 20.8972 78.3282 20.3262 77.1216 20.3262C76.6819 20.3086 76.2451 20.4044 75.8531 20.6044C75.4612 20.8044 75.1273 21.1018 74.8834 21.4681L73.4484 20.1892C74.0498 19.1576 75.3821 18.3964 77.4223 18.3964C79.9269 18.3964 81.419 19.5383 81.419 21.8564V25.8683H82.4315V27.7715L80.9052 27.783ZM78.7926 24.9624V23.8624H77.388C76.3413 23.8624 75.7741 24.243 75.7741 24.9434V25.2974C75.7741 25.9369 76.307 26.2756 77.1406 26.2756C78.0618 26.2756 78.7926 25.8151 78.7926 24.9624Z" fill="#1C509D"/>
<path d="M92.5604 23.2039C92.5604 20.2387 94.3152 18.4116 97.1738 18.4116C99.1797 18.4116 100.352 19.3175 100.98 20.646L98.9552 21.7498C98.8295 21.3774 98.5874 21.0553 98.2645 20.8312C97.9416 20.607 97.5552 20.4927 97.1623 20.5051C95.9747 20.5051 95.282 21.2664 95.282 22.4578V23.9499C95.282 25.1566 95.9557 25.9026 97.1852 25.9026C98.1939 25.9026 98.7268 25.3697 99.1188 24.6237L101.106 25.7656C100.451 27.094 99.2026 28 97.1661 28C94.2733 28 92.5338 26.1729 92.5338 23.2077" fill="#1C509D"/>
<path d="M89.5762 21.038H91.5289V18.6248H90.6611C88.99 18.6248 88.1222 19.7933 87.7301 21.0038H87.6045V18.6248H82.8655V20.665H84.9781V25.7427V27.783H90.623V25.7427H87.6045V22.5834C87.6045 21.5519 88.4039 21.038 89.5762 21.038Z" fill="#1C509D"/>
<path d="M108.022 18.4116C107.43 18.3921 106.847 18.5646 106.36 18.9035C105.874 19.2424 105.51 19.7295 105.323 20.292H105.217V15.397H99.7889V17.4296H102.59V27.783H105.217V21.7651C105.217 20.8782 106.016 20.4329 106.831 20.4329C107.862 20.4329 108.376 21.0571 108.376 22.2104V27.783H111.003V21.8564C111.003 19.6373 109.781 18.4307 108.022 18.4307" fill="#1C509D"/>
<path d="M35.6623 12.3936L32.3773 0.00378418H35.3425L36.7966 6.30339L37.5236 9.8738H37.6682L38.4105 6.30339L39.8874 0.00378418H42.7079L39.423 12.3936H35.6623Z" fill="#1C509D"/>
<path d="M50.7356 12.4013C49.6508 12.4013 48.9428 11.8151 48.8324 10.7874H48.7449C48.4251 11.975 47.3593 12.6144 45.9548 12.6144C44.181 12.6144 43.0086 11.6019 43.0086 9.88143C43.0086 7.97823 44.4474 7.05708 47.1271 7.05708H48.6002V6.58889C48.6002 5.50406 48.1396 4.93691 46.933 4.93691C46.4934 4.91969 46.0567 5.01566 45.6648 5.21561C45.2729 5.41556 44.9389 5.71279 44.6948 6.07883L43.256 4.80368C43.8612 3.77215 45.1935 3.01086 47.2337 3.01086C49.7383 3.01086 51.2304 4.15279 51.2304 6.47089V10.4981H52.2391V12.4013H50.7356ZM48.604 9.58072V8.47687H47.1995C46.1527 8.47687 45.5817 8.85751 45.5817 9.56169V9.91569C45.5817 10.5552 46.1146 10.8939 46.9482 10.8939C47.8732 10.8939 48.6002 10.4296 48.6002 9.58072" fill="#1C509D"/>
<path d="M65.3979 10.7265H65.2913C65.1044 11.2891 64.7407 11.7761 64.2543 12.115C63.7679 12.4539 63.185 12.6264 62.5926 12.6069C60.834 12.6069 59.6083 11.3812 59.6083 9.16207V3.23169H62.2386V8.80808C62.2386 9.95 62.7524 10.5819 63.784 10.5819C64.5985 10.5819 65.3979 10.1403 65.3979 9.25343V3.23169H68.0243V12.4013H65.3979V10.7265Z" fill="#1C509D"/>
<path d="M70.3957 7.83351C70.3957 4.83406 72.0972 3.00317 74.8492 3.00317C77.6012 3.00317 79.2722 4.7998 79.2722 7.65841V8.41969H73.0031V8.57956C73.0031 9.75194 73.7644 10.5475 75.1689 10.5475C75.6325 10.5555 76.0916 10.4567 76.5108 10.2587C76.9299 10.0606 77.2978 9.76872 77.586 9.40555L79.0058 10.951C78.294 11.8188 77.0531 12.5649 75.0814 12.5649C72.0096 12.5649 70.3957 10.7378 70.3957 7.80686V7.83351ZM73.0031 6.79436V6.939H76.6953V6.79436C76.6953 5.60676 76.0025 4.8607 74.8682 4.8607C73.7339 4.8607 73.0031 5.62198 73.0031 6.79436Z" fill="#1C509D"/>
<path d="M57.2408 10.3534V0H51.809V2.04404H51.8128H54.5915H54.6143V10.3534V12.3937H57.2408V10.3534Z" fill="#1C509D"/>
<path d="M28 28.022H0V0.0219727H28V28.022ZM1.8526 26.1732H26.1512V1.87457H1.85644L1.8526 26.1732Z" fill="#1C509D"/>
<path d="M10.9277 23.7193L0.230164 11.219L1.634 10.0146L11.0543 21.0267L26.4389 6.12915L27.7239 7.45627L10.9277 23.7193Z" fill="#1C509D"/>
</g>
<defs>
<clipPath id="clip0">
<rect width="112" height="28" fill="white"/>
</clipPath>
</defs>
</svg>
