<svg width="18" height="18" viewBox="0 0 18 18" fill="none" xmlns="http://www.w3.org/2000/svg">
<rect width="18" height="18" fill="#888888"/>
<g id="D - All New Screener Pop Up">
<g id="Frame 7890">
<path d="M-276 -40C-276 -45.5229 -271.523 -50 -266 -50H284C289.523 -50 294 -45.5228 294 -40V199.757H-276V-40Z" fill="url(#paint0_linear_4321_54718)"/>
<g id="Group 7544">
<path id="Vector" d="M17.5807 17.454H0.414062V0.300781H17.5807V17.454ZM1.56074 16.3208H16.4475V1.43405H1.56074V16.3208Z" fill="white"/>
<path id="Vector_2" d="M17.8818 17.7568H0.125V0H17.8818V17.7568ZM0.721809 17.1599H17.285V0.596799H0.721809V17.1599ZM16.7485 16.6235H1.25827V1.13327H16.7485V16.6235ZM1.85508 16.0267H16.1517V1.73007H1.85508V16.0267Z" fill="white"/>
<path id="Vector_3" d="M7.1207 14.818L0.5625 7.15331L1.42083 6.42239L7.19446 13.1684L16.6227 4.03516L17.414 4.85326L7.1207 14.818Z" fill="white"/>
<path id="Vector_4" d="M7.12129 15.2539L0.140625 7.12656L1.48177 5.99998L7.24199 12.7057L16.63 3.58594L17.837 4.83319L7.12129 15.2539ZM1.00566 7.20703L7.12129 14.3821L16.972 4.84662L16.5965 4.45767L7.17493 13.6043L1.3946 6.8382L1.00566 7.20703Z" fill="white"/>
</g>
</g>
</g>
<defs>
<linearGradient id="paint0_linear_4321_54718" x1="-92" y1="199.757" x2="-92" y2="-50" gradientUnits="userSpaceOnUse">
<stop stop-color="#1C509D"/>
<stop offset="1" stop-color="#316ECA"/>
</linearGradient>
</defs>
</svg>
